# xmcd
#
# Track frame offsets: 
#        150
#        14590
#        31788
#        46022
#        63432
#        76056
#        95251
#        110124
#        130757
#        142039
#        157065
#        168652
#        187345
#        203544
#        220919
#        238560
#
# Disc length: 3386 seconds
#
# Revision: 1
# Processed by: cddbd v1.5.1PL0 Copyright (c) Steve Scherf et al.
# Submitted via: ExactAudioCopy v0.95a5
#
DISCID=dd0d3810
DTITLE=Various Artist - América Country
DYEAR=2005
DGENRE=Country
TTITLE0=Joe Rednex - Cotton Eye
TTITLE1=Livin' On Love
TTITLE2=John Denver - Take Me Home
TTITLE3=Trisha Yarwood - Looks Like A Lady
TTITLE4=You're The One That I Want
TTITLE5=Janie's Got A Gun
TTITLE6=Hittin'
TTITLE7=Blind Man
TTITLE8=Dences Are Wild
TTITLE9=E' At The Rich
TTITLE10=Angel
TTITLE11=Breathe
TTITLE12=Don't Be Stupid
TTITLE13=I'll Try
TTITLE14=Man I Feel Like A Woman
TTITLE15=Riding Alone
EXTD=
EXTT0=
EXTT1=
EXTT2=
EXTT3=
EXTT4=
EXTT5=
EXTT6=
EXTT7=
EXTT8=
EXTT9=
EXTT10=
EXTT11=
EXTT12=
EXTT13=
EXTT14=
EXTT15=
PLAYORDER=
